<svg width="66" height="61" viewBox="0 0 66 61" fill="none" xmlns="http://www.w3.org/2000/svg">
<path d="M56.465 25.4185C60.5288 27.5874 60.5288 33.4126 56.465 35.5815L24.9687 52.392C21.1319 54.4398 16.4966 51.6596 16.4966 47.3104L16.4966 13.6896C16.4966 9.34045 21.1319 6.56022 24.9687 8.60804L56.465 25.4185Z" fill="#15616D"/>
<path d="M53.1657 25.4193C57.2295 27.5882 57.2295 33.4133 53.1657 35.5823L26.6183 49.7514C22.7815 51.7992 18.1462 49.019 18.1462 44.6698L18.1462 16.3317C18.1462 11.9826 22.7815 9.20238 26.6183 11.2502L53.1657 25.4193Z" fill="white"/>
<path d="M32.4586 31.849C32.4586 32.7263 32.363 33.487 32.1716 34.131C31.985 34.775 31.726 35.3093 31.3946 35.734C31.068 36.154 30.6806 36.4667 30.2326 36.672C29.7893 36.8773 29.311 36.98 28.7976 36.98C28.2843 36.98 27.8036 36.8773 27.3556 36.672C26.9123 36.4667 26.5273 36.154 26.2006 35.734C25.874 35.3093 25.6173 34.775 25.4306 34.131C25.244 33.487 25.1506 32.7263 25.1506 31.849C25.1506 30.9717 25.244 30.211 25.4306 29.567C25.6173 28.9183 25.874 28.384 26.2006 27.964C26.5273 27.5393 26.9123 27.2243 27.3556 27.019C27.8036 26.8137 28.2843 26.711 28.7976 26.711C29.311 26.711 29.7893 26.8137 30.2326 27.019C30.6806 27.2243 31.068 27.5393 31.3946 27.964C31.726 28.384 31.985 28.9183 32.1716 29.567C32.363 30.211 32.4586 30.9717 32.4586 31.849ZM31.0446 31.849C31.0446 31.093 30.9816 30.4607 30.8556 29.952C30.7343 29.4433 30.5686 29.035 30.3586 28.727C30.1533 28.4143 29.9153 28.1927 29.6446 28.062C29.374 27.9313 29.0916 27.866 28.7976 27.866C28.5036 27.866 28.2213 27.9313 27.9506 28.062C27.68 28.1927 27.4396 28.4143 27.2296 28.727C27.0243 29.035 26.861 29.4433 26.7396 29.952C26.6183 30.4607 26.5576 31.093 26.5576 31.849C26.5576 32.605 26.6183 33.2373 26.7396 33.746C26.861 34.2547 27.0243 34.663 27.2296 34.971C27.4396 35.279 27.68 35.4983 27.9506 35.629C28.2213 35.7597 28.5036 35.825 28.7976 35.825C29.0916 35.825 29.374 35.7597 29.6446 35.629C29.9153 35.4983 30.1533 35.279 30.3586 34.971C30.5686 34.663 30.7343 34.2547 30.8556 33.746C30.9816 33.2373 31.0446 32.605 31.0446 31.849ZM33.7337 29.56C33.8037 29.0933 33.9344 28.6827 34.1257 28.328C34.3171 27.9733 34.5574 27.677 34.8467 27.439C35.1361 27.1963 35.4674 27.0143 35.8407 26.893C36.2187 26.7717 36.6247 26.711 37.0587 26.711C37.4927 26.711 37.8917 26.774 38.2557 26.9C38.6197 27.0213 38.9301 27.1963 39.1867 27.425C39.4481 27.649 39.6511 27.9197 39.7957 28.237C39.9404 28.5543 40.0127 28.9043 40.0127 29.287C40.0127 29.609 39.9731 29.8937 39.8937 30.141C39.8144 30.3883 39.7001 30.6053 39.5507 30.792C39.4061 30.9787 39.2287 31.1373 39.0187 31.268C38.8087 31.394 38.5731 31.499 38.3117 31.583C38.9511 31.7603 39.4317 32.0497 39.7537 32.451C40.0757 32.8477 40.2367 33.3517 40.2367 33.963C40.2367 34.4343 40.1481 34.859 39.9707 35.237C39.7934 35.6103 39.5507 35.9277 39.2427 36.189C38.9347 36.4457 38.5754 36.644 38.1647 36.784C37.7587 36.9193 37.3247 36.987 36.8627 36.987C36.3354 36.987 35.8827 36.924 35.5047 36.798C35.1267 36.6673 34.8047 36.4877 34.5387 36.259C34.2727 36.0257 34.0511 35.748 33.8737 35.426C33.7011 35.0993 33.5541 34.7423 33.4327 34.355L34.0277 34.103C34.1817 34.0377 34.3311 34.019 34.4757 34.047C34.6204 34.075 34.7254 34.1567 34.7907 34.292C34.8607 34.432 34.9401 34.5907 35.0287 34.768C35.1221 34.9407 35.2457 35.1063 35.3997 35.265C35.5537 35.419 35.7451 35.5497 35.9737 35.657C36.2071 35.7643 36.4987 35.818 36.8487 35.818C37.1847 35.818 37.4787 35.7643 37.7307 35.657C37.9827 35.545 38.1927 35.4027 38.3607 35.23C38.5287 35.0527 38.6547 34.8567 38.7387 34.642C38.8227 34.4273 38.8647 34.215 38.8647 34.005C38.8647 33.7437 38.8321 33.5033 38.7667 33.284C38.7014 33.0647 38.5754 32.878 38.3887 32.724C38.2067 32.5653 37.9524 32.4417 37.6257 32.353C37.2991 32.2643 36.8744 32.22 36.3517 32.22V31.226C36.7811 31.2213 37.1427 31.177 37.4367 31.093C37.7354 31.009 37.9757 30.8923 38.1577 30.743C38.3397 30.5937 38.4704 30.4163 38.5497 30.211C38.6337 30.0057 38.6757 29.777 38.6757 29.525C38.6757 29.2497 38.6337 29.0093 38.5497 28.804C38.4657 28.5987 38.3467 28.4283 38.1927 28.293C38.0434 28.153 37.8637 28.0503 37.6537 27.985C37.4484 27.915 37.2244 27.88 36.9817 27.88C36.7391 27.88 36.5151 27.915 36.3097 27.985C36.1044 28.055 35.9224 28.153 35.7637 28.279C35.6051 28.405 35.4721 28.5543 35.3647 28.727C35.2574 28.8997 35.1804 29.0863 35.1337 29.287C35.0684 29.4643 34.9844 29.5833 34.8817 29.644C34.7837 29.7047 34.6414 29.7187 34.4547 29.686L33.7337 29.56Z" fill="#333333"/>
</svg>
