<svg width="72" height="61" viewBox="0 0 72 61" fill="none" xmlns="http://www.w3.org/2000/svg">
<path d="M61.422 25.3258C65.7274 27.4318 65.7274 33.5682 61.422 35.6742L26.2909 52.8583C22.4642 54.7301 18 51.9441 18 47.6841L18 13.3159C18 9.0559 22.4642 6.26987 26.2909 8.14167L61.422 25.3258Z" fill="#0E096C"/>
<path d="M57.8219 25.3256C62.1273 27.4316 62.1273 33.568 57.8219 35.674L28.0908 50.2167C24.2641 52.0886 19.7999 49.3025 19.7999 45.0426L19.7999 15.957C19.7999 11.6971 24.2641 8.91105 28.0908 10.7829L57.8219 25.3256Z" fill="white"/>
<path d="M34.714 31.849C34.714 32.7263 34.6183 33.487 34.427 34.131C34.2403 34.775 33.9813 35.3093 33.65 35.734C33.3233 36.154 32.936 36.4667 32.488 36.672C32.0447 36.8773 31.5663 36.98 31.053 36.98C30.5397 36.98 30.059 36.8773 29.611 36.672C29.1677 36.4667 28.7827 36.154 28.456 35.734C28.1293 35.3093 27.8727 34.775 27.686 34.131C27.4993 33.487 27.406 32.7263 27.406 31.849C27.406 30.9717 27.4993 30.211 27.686 29.567C27.8727 28.9183 28.1293 28.384 28.456 27.964C28.7827 27.5393 29.1677 27.2243 29.611 27.019C30.059 26.8137 30.5397 26.711 31.053 26.711C31.5663 26.711 32.0447 26.8137 32.488 27.019C32.936 27.2243 33.3233 27.5393 33.65 27.964C33.9813 28.384 34.2403 28.9183 34.427 29.567C34.6183 30.211 34.714 30.9717 34.714 31.849ZM33.3 31.849C33.3 31.093 33.237 30.4607 33.111 29.952C32.9897 29.4433 32.824 29.035 32.614 28.727C32.4087 28.4143 32.1707 28.1927 31.9 28.062C31.6293 27.9313 31.347 27.866 31.053 27.866C30.759 27.866 30.4767 27.9313 30.206 28.062C29.9353 28.1927 29.695 28.4143 29.485 28.727C29.2797 29.035 29.1163 29.4433 28.995 29.952C28.8737 30.4607 28.813 31.093 28.813 31.849C28.813 32.605 28.8737 33.2373 28.995 33.746C29.1163 34.2547 29.2797 34.663 29.485 34.971C29.695 35.279 29.9353 35.4983 30.206 35.629C30.4767 35.7597 30.759 35.825 31.053 35.825C31.347 35.825 31.6293 35.7597 31.9 35.629C32.1707 35.4983 32.4087 35.279 32.614 34.971C32.824 34.663 32.9897 34.2547 33.111 33.746C33.237 33.2373 33.3 32.605 33.3 31.849ZM42.2751 35.832V36.875H36.8431V35.832H38.9711V29.245C38.9711 29.035 38.9781 28.818 38.9921 28.594L37.2841 30.043C37.2188 30.0943 37.1534 30.127 37.0881 30.141C37.0228 30.155 36.9598 30.1573 36.8991 30.148C36.8431 30.1387 36.7918 30.12 36.7451 30.092C36.7031 30.0593 36.6681 30.0267 36.6401 29.994L36.2131 29.399L39.2231 26.802H40.3361V35.832H42.2751Z" fill="#333333"/>
</svg>
