<svg width="66" height="61" viewBox="0 0 66 61" fill="none" xmlns="http://www.w3.org/2000/svg">
<path d="M56.465 25.4185C60.5288 27.5874 60.5288 33.4126 56.465 35.5815L24.9687 52.392C21.1319 54.4398 16.4966 51.6596 16.4966 47.3104L16.4966 13.6896C16.4966 9.34045 21.1319 6.56022 24.9687 8.60804L56.465 25.4185Z" fill="#CC06AC"/>
<path d="M53.1657 25.4193C57.2295 27.5882 57.2295 33.4133 53.1657 35.5823L26.6183 49.7514C22.7815 51.7992 18.1462 49.019 18.1462 44.6698L18.1462 16.3317C18.1462 11.9826 22.7815 9.20238 26.6183 11.2502L53.1657 25.4193Z" fill="white"/>
<path d="M32.4586 31.849C32.4586 32.7263 32.363 33.487 32.1716 34.131C31.985 34.775 31.726 35.3093 31.3946 35.734C31.068 36.154 30.6806 36.4667 30.2326 36.672C29.7893 36.8773 29.311 36.98 28.7976 36.98C28.2843 36.98 27.8036 36.8773 27.3556 36.672C26.9123 36.4667 26.5273 36.154 26.2006 35.734C25.874 35.3093 25.6173 34.775 25.4306 34.131C25.244 33.487 25.1506 32.7263 25.1506 31.849C25.1506 30.9717 25.244 30.211 25.4306 29.567C25.6173 28.9183 25.874 28.384 26.2006 27.964C26.5273 27.5393 26.9123 27.2243 27.3556 27.019C27.8036 26.8137 28.2843 26.711 28.7976 26.711C29.311 26.711 29.7893 26.8137 30.2326 27.019C30.6806 27.2243 31.068 27.5393 31.3946 27.964C31.726 28.384 31.985 28.9183 32.1716 29.567C32.363 30.211 32.4586 30.9717 32.4586 31.849ZM31.0446 31.849C31.0446 31.093 30.9816 30.4607 30.8556 29.952C30.7343 29.4433 30.5686 29.035 30.3586 28.727C30.1533 28.4143 29.9153 28.1927 29.6446 28.062C29.374 27.9313 29.0916 27.866 28.7976 27.866C28.5036 27.866 28.2213 27.9313 27.9506 28.062C27.68 28.1927 27.4396 28.4143 27.2296 28.727C27.0243 29.035 26.861 29.4433 26.7396 29.952C26.6183 30.4607 26.5576 31.093 26.5576 31.849C26.5576 32.605 26.6183 33.2373 26.7396 33.746C26.861 34.2547 27.0243 34.663 27.2296 34.971C27.4396 35.279 27.68 35.4983 27.9506 35.629C28.2213 35.7597 28.5036 35.825 28.7976 35.825C29.0916 35.825 29.374 35.7597 29.6446 35.629C29.9153 35.4983 30.1533 35.279 30.3586 34.971C30.5686 34.663 30.7343 34.2547 30.8556 33.746C30.9816 33.2373 31.0446 32.605 31.0446 31.849ZM39.7677 35.58C39.9171 35.58 40.0337 35.6243 40.1177 35.713C40.2017 35.797 40.2437 35.909 40.2437 36.049V36.875H33.4957V36.406C33.4957 36.3127 33.5144 36.2147 33.5517 36.112C33.5891 36.0047 33.6521 35.909 33.7407 35.825L36.9187 32.64C37.1847 32.374 37.4251 32.1173 37.6397 31.87C37.8544 31.6227 38.0364 31.3777 38.1857 31.135C38.3351 30.8877 38.4494 30.6357 38.5287 30.379C38.6127 30.1223 38.6547 29.8517 38.6547 29.567C38.6547 29.287 38.6104 29.042 38.5217 28.832C38.4331 28.6173 38.3117 28.44 38.1577 28.3C38.0037 28.16 37.8217 28.055 37.6117 27.985C37.4017 27.915 37.1754 27.88 36.9327 27.88C36.6901 27.88 36.4661 27.915 36.2607 27.985C36.0601 28.055 35.8804 28.153 35.7217 28.279C35.5631 28.405 35.4301 28.5543 35.3227 28.727C35.2154 28.8997 35.1384 29.0863 35.0917 29.287C35.0264 29.4643 34.9424 29.5833 34.8397 29.644C34.7417 29.7047 34.5971 29.7187 34.4057 29.686L33.6917 29.56C33.7571 29.0933 33.8854 28.6827 34.0767 28.328C34.2681 27.9733 34.5084 27.677 34.7977 27.439C35.0871 27.1963 35.4184 27.0143 35.7917 26.893C36.1697 26.7717 36.5757 26.711 37.0097 26.711C37.4484 26.711 37.8521 26.7763 38.2207 26.907C38.5941 27.033 38.9161 27.2173 39.1867 27.46C39.4574 27.7027 39.6697 27.999 39.8237 28.349C39.9777 28.6943 40.0547 29.0863 40.0547 29.525C40.0547 29.8983 39.9987 30.246 39.8867 30.568C39.7794 30.8853 39.6301 31.1887 39.4387 31.478C39.2521 31.7673 39.0327 32.0497 38.7807 32.325C38.5334 32.5957 38.2697 32.871 37.9897 33.151L35.4417 35.755C35.6377 35.7037 35.8337 35.6617 36.0297 35.629C36.2304 35.5963 36.4194 35.58 36.5967 35.58H39.7677Z" fill="#333333"/>
</svg>
